<svg width="88" height="103" viewBox="0 0 88 103" fill="none" xmlns="http://www.w3.org/2000/svg">
<path fill-rule="evenodd" clip-rule="evenodd" d="M44.5559 5.51327C52.3266 -7.63929 68.489 5.51327 59.76 16.1453C57.4991 18.671 54.1743 20.5548 50.3642 22.7134C48.5206 23.758 46.5634 24.8669 44.5581 26.144V26.1509C42.5521 24.8732 40.5941 23.7638 38.7498 22.7189C34.9397 20.5603 31.6149 18.6765 29.3541 16.1508C20.6259 5.51978 36.7843 -7.63128 44.5559 5.51501V5.51327Z" fill="#6B40D8"/>
<path fill-rule="evenodd" clip-rule="evenodd" d="M9.68164 73.6513L12.0646 52.5308L15.0675 54.2863L17.9625 78.4281L15.618 77.0845L15.0251 71.4023L12.2354 69.7857L11.7952 74.8709L9.68164 73.6513ZM12.5861 67.6124L14.8228 68.902L13.5023 57.6261L12.5861 67.6124Z" fill="#6B40D8"/>
<path d="M21.8454 74.5577L19.4662 73.1745V77.304L19.4663 77.3088C19.4672 77.3567 19.4846 78.1162 19.6933 78.7386C19.8586 79.2313 20.0374 79.5319 20.1119 79.6453C20.1348 79.6803 20.1659 79.7083 20.2016 79.73L20.8945 80.1514L24.5363 82.2418C24.5363 82.2418 25.006 82.6807 25.4872 82.4305C25.9005 82.2156 26.0639 81.7168 26.1018 81.5802C26.1083 81.5567 26.1109 81.5327 26.1109 81.5083V71.9052C26.1109 71.9052 26.1489 71.3685 26.0532 71.0814C25.9482 70.7665 25.7907 70.6514 25.7391 70.6208C25.728 70.6142 25.7165 70.6084 25.7052 70.6019L22.6115 68.8023L22.0683 68.4519C22.0329 68.4291 22.0022 68.3997 21.9778 68.3653L21.859 68.198C21.8372 68.1674 21.8208 68.1334 21.8121 68.0968C21.7919 68.0114 21.7568 67.8381 21.7568 67.6628C21.7568 67.4164 21.676 61.7419 21.676 61.7419C21.676 61.7419 21.5691 60.9228 21.9234 60.852C22.2154 60.7936 23.4765 61.5875 23.9111 61.8685C24.0043 61.9288 24.059 62.0318 24.059 62.1427V62.9776L24.1899 66.5463L26.1071 67.4356V62.8429V62.2385C26.1071 61.916 26.0866 61.4723 25.9839 61.2029C25.7298 60.5369 25.6027 60.5176 25.1754 60.1596C25.1754 60.1596 22.5422 58.6544 21.8261 58.2155C21.4467 57.9829 20.9685 57.8616 20.5326 57.9528C20.281 58.0054 20.0435 58.1288 19.8473 58.3425C19.6317 58.5773 19.5201 58.7275 19.4662 59.1471C19.4123 59.5667 19.4316 67.3664 19.4662 67.9092C19.5009 68.452 19.8473 69.2643 19.8473 69.2643C19.8473 69.2643 19.8592 69.3344 20.113 69.63C20.3566 69.9137 21.1328 70.4491 21.2307 70.5162C21.2376 70.5209 21.2446 70.5252 21.2518 70.5294L23.6971 71.936C23.9413 72.0932 24.0198 72.4539 24.0362 72.5458C24.0388 72.5602 24.0397 72.5748 24.0398 72.5895L24.058 79.0145C24.0586 79.1979 23.9094 79.3468 23.726 79.3468C23.6645 79.3468 23.6039 79.3297 23.5515 79.2973L22.1914 78.4558C22.1891 78.4544 22.187 78.4527 22.1852 78.4508L21.9398 78.1999C21.8793 78.138 21.8454 78.0549 21.8454 77.9683V77.3064V74.5577Z" fill="#6B40D8"/>
<path d="M28.9414 84.8048V62.353L31.0973 63.5888V74.4798L34.7391 65.7177L36.5524 66.7456L32.8605 75.5924L36.1058 88.9741L33.8345 87.696L31.0973 76.1737V86.056L28.9414 84.8048Z" fill="#6B40D8"/>
<path fill-rule="evenodd" clip-rule="evenodd" d="M30.9116 24.3072L26.1168 21.6377L0.394531 36.6486V78.3666L43.9058 103.001L87.6059 78.3666V36.6486L61.367 21.6377L56.6478 24.3072L81.4709 38.2926L43.9058 59.8672L6.62121 38.2926L30.9116 24.3072ZM83.566 43.0673L46.1856 64.5087V97.4288L83.566 75.8791V43.0673ZM41.8164 64.5087L4.43604 43.0673V75.8791L41.8164 97.4288V64.5087Z" fill="#6B40D8"/>
<path d="M44.5518 99.924V63.3454L86.3805 38.3428V77.3313L44.5518 99.924Z" fill="#6B40D8"/>
<path d="M32.169 42.0828L51.8674 30.6377L54.0503 31.9681L56.3105 33.248L36.6434 44.6171L32.169 42.0828Z" fill="#6B40D8"/>
<path fill-rule="evenodd" clip-rule="evenodd" d="M51.0068 88.8703L51.0069 67.6172C51.0069 67.5567 51.0399 67.501 51.093 67.4719L57.3037 64.07C57.3525 64.0433 57.4072 64.0293 57.4628 64.0293H57.7135C57.7674 64.0293 57.8206 64.0425 57.8683 64.0677L58.1929 64.2392C58.2379 64.263 58.2768 64.2969 58.3066 64.3381L58.5043 64.6116C58.5317 64.6496 58.5508 64.6928 58.5602 64.7386L58.6383 65.1159V72.7666C58.6383 72.7666 58.6383 73.1186 58.557 73.3344C58.4757 73.5501 57.8806 74.2517 57.8806 74.2517L58.3221 74.3135C58.4626 74.3332 58.5749 74.44 58.6016 74.5793L58.6323 74.7395C58.6363 74.7601 58.6383 74.781 58.6383 74.8019V83.3317C58.6383 83.3317 58.649 83.7494 58.3833 84.2811C58.1176 84.8129 57.7448 85.2938 57.3523 85.6573L56.6131 86.1L51.2517 89.0158C51.1413 89.0759 51.0068 88.996 51.0068 88.8703ZM53.2275 75.5847V68.8014V68.4703L55.8711 67.0432C56.0028 66.9721 56.1658 66.9982 56.2689 67.1068L56.3899 67.2343C56.4375 67.2846 56.4683 67.3484 56.4777 67.417L56.5233 67.7466V73.4904C56.5233 73.5185 56.5197 73.5466 56.5126 73.5738L56.4794 73.7016C56.4635 73.7623 56.4308 73.8173 56.3849 73.8602L56.3383 73.9037C56.3174 73.9233 56.294 73.94 56.2688 73.9536L53.2275 75.5847ZM53.2275 78.4801V85.8632L55.9121 84.3458L56.3511 84.0064C56.3932 83.9738 56.4268 83.9316 56.4492 83.8833L56.5697 83.6224C56.5899 83.5788 56.6003 83.5314 56.6003 83.4834V77.1591V77.0321C56.6003 76.8491 56.452 76.7008 56.269 76.7008H55.9808C55.9277 76.7008 55.8754 76.7136 55.8282 76.738L53.2275 78.0873V78.4801Z" fill="white"/>
<path fill-rule="evenodd" clip-rule="evenodd" d="M61.5242 63.4032L61.5205 81.2838C61.5205 81.318 61.5257 81.3518 61.5377 81.3837C61.5895 81.5207 61.761 81.9201 62.0941 82.2092C62.4271 82.4982 62.7881 82.472 62.9099 82.4525C62.9385 82.4479 62.9653 82.4368 62.9905 82.4223L68.1813 79.4414C68.2038 79.4285 68.2246 79.4131 68.2424 79.3943C68.3195 79.3129 68.543 79.0549 68.6925 78.6559C68.8757 78.167 68.8427 77.2353 68.8427 77.2353V59.3186C68.8427 59.3186 68.9004 58.6217 68.5847 58.306C68.3233 58.0446 67.8693 58.0947 67.7208 58.1196C67.6883 58.1251 67.6578 58.1374 67.6293 58.1539L63.1451 60.7584C63.1451 60.7584 62.3635 61.1202 61.9362 61.8786C61.5088 62.6371 61.5242 63.4032 61.5242 63.4032ZM63.7081 63.5617V62.9915C63.7081 62.8919 63.7529 62.7976 63.83 62.7347L64.1046 62.5108L66.4799 61.0863C66.6285 61.0121 66.8033 61.1201 66.8033 61.2862V61.4829V77.1014V77.7119C66.8033 77.8297 66.7408 77.9386 66.6391 77.998L64.39 79.3121C64.3392 79.3417 64.2816 79.3573 64.2228 79.3573H64.0551C63.9484 79.3573 63.8483 79.306 63.786 79.2194L63.7704 79.1976C63.7299 79.1412 63.7081 79.0736 63.7081 79.0042V63.5617Z" fill="white"/>
<path d="M73.2464 54.9801L71.3253 56.0734L74.1395 64.0501L70.7363 78.0517L73.1771 76.6273L75.3406 67.2916L77.7698 73.9748L79.5715 72.9084L76.4224 64.0501L79.3983 51.4268L76.8767 52.8781L75.1636 61.159L73.2464 54.9801Z" fill="white"/>
</svg>
